<svg xmlns="http://www.w3.org/2000/svg" viewBox="0 0 400 320" width="100%" height="100%">
  <defs>
    <linearGradient id="bgGrad" x1="0" y1="0" x2="1" y2="1">
      <stop offset="0%" stop-color="#F8FAFC" />
      <stop offset="100%" stop-color="#EDF2F7" />
    </linearGradient>
    <linearGradient id="primaryGrad" x1="0" y1="0" x2="1" y2="0">
      <stop offset="0%" stop-color="#007791" />
      <stop offset="100%" stop-color="#003B46" />
    </linearGradient>
    <filter id="cardShadow" x="-10%" y="-10%" width="120%" height="130%">
      <feDropShadow dx="0" dy="8" stdDeviation="12" flood-color="#0F172A" flood-opacity="0.12" />
    </filter>
    <filter id="pillGlow" x="-20%" y="-20%" width="140%" height="140%">
      <feDropShadow dx="0" dy="4" stdDeviation="6" flood-color="#000000" flood-opacity="0.15" />
    </filter>
  </defs>

  <!-- Clean Studio Background -->
  <rect width="400" height="320" rx="16" fill="url(#bgGrad)" />
  <circle cx="200" cy="150" r="110" fill="#FFFFFF" opacity="0.6" />

  <!-- Pharmacy Cross Watermark subtle -->
  <path d="M 190 40 h 20 v 30 h 30 v 20 h -30 v 30 h -20 v -30 h -30 v -20 h 30 Z" fill="#007791" opacity="0.04" />

  <!-- Outer Carton / Main Presentation Box -->
  <g filter="url(#cardShadow)">
    <!-- Box Front Surface -->
    <rect x="70" y="55" width="260" height="190" rx="10" fill="#FFFFFF" stroke="#E2E8F0" stroke-width="1.5" />
    <!-- Header Color Accent Band -->
    <rect x="70" y="55" width="260" height="42" rx="10" fill="url(#primaryGrad)" />
    <rect x="70" y="87" width="260" height="10" fill="url(#primaryGrad)" />
    
    <!-- Rx / OTC Tag -->
    <rect x="85" y="65" width="34" height="22" rx="4" fill="#FFFFFF" />
    <text x="102" y="81" font-family="Arial, sans-serif" font-weight="900" font-size="13" fill="#007791" text-anchor="middle">Rx</text>
    
    <!-- Brand Label -->
    <text x="130" y="82" font-family="'Segoe UI', Roboto, sans-serif" font-weight="800" font-size="16" fill="#FFFFFF">Asthalin Inhaler</text>
    
    <!-- Generic Scientific Formulation -->
    <text x="85" y="122" font-family="'Segoe UI', Roboto, sans-serif" font-weight="600" font-size="11" fill="#475569">Salbutamol Inhalation Aerosol IP</text>
    <text x="85" y="137" font-family="'Segoe UI', Roboto, sans-serif" font-weight="600" font-size="11" fill="#64748B"></text>
    
    <!-- Strength & Form Badges -->
    <rect x="85" y="152" width="110" height="22" rx="6" fill="#F1F5F9" />
    <text x="140" y="167" font-family="Arial, sans-serif" font-weight="700" font-size="11" fill="#1E293B" text-anchor="middle">100 mcg / actuation</text>
    
    <rect x="202" y="152" width="70" height="22" rx="6" fill="#EFF6FF" stroke="#BFDBFE" stroke-width="0.8" />
    <text x="237" y="167" font-family="Arial, sans-serif" font-weight="700" font-size="10" fill="#1D4ED8" text-anchor="middle">INHALER</text>

    <!-- Manufacturer Seal -->
    <line x1="85" y1="192" x2="315" y2="192" stroke="#F1F5F9" stroke-width="1.5" />
    <circle cx="97" cy="214" r="10" fill="#007791" opacity="0.12" />
    <text x="97" y="218" font-family="Arial, sans-serif" font-weight="900" font-size="10" fill="#007791" text-anchor="middle">✓</text>
    <text x="115" y="214" font-family="'Segoe UI', Roboto, sans-serif" font-weight="700" font-size="11" fill="#0F172A">Cipla Ltd</text>
    <text x="115" y="226" font-family="'Segoe UI', Roboto, sans-serif" font-weight="500" font-size="9" fill="#94A3B8">Authentic Verified Quality</text>
  </g>

  <!-- Foreground Dosage Graphic Representation -->
  <g filter="url(#pillGlow)">
    
    

    

    

    
    <!-- Inhaler Representation -->
    <path d="M 270 170 h 24 v 40 h 20 v 22 h -44 Z" rx="4" fill="#0284C7" stroke="#0369A1" stroke-width="1" />
    <rect x="272" y="162" width="20" height="10" rx="3" fill="#E2E8F0" />
    <circle cx="282" cy="195" r="4" fill="#FFFFFF" opacity="0.8" />
    

    

    
  </g>

  <!-- Bottom Quality Ribbon -->
  <rect x="0" y="306" width="400" height="14" fill="#007791" />
</svg>